<svg xmlns="http://www.w3.org/2000/svg" xmlns:xlink="http://www.w3.org/1999/xlink" width="30.346" height="43.833" viewBox="0 0 30.346 43.833">
  <defs>
    <clipPath id="clip-path">
      <path id="Path_72" data-name="Path 72" d="M0,0H30.346V-43.833H0Z" fill="none"/>
    </clipPath>
  </defs>
  <g id="Group_157" data-name="Group 157" transform="translate(0 43.833)" style="isolation: isolate">
    <g id="Group_155" data-name="Group 155" clip-path="url(#clip-path)">
      <g id="Group_153" data-name="Group 153" transform="translate(14.33 -38.775)">
        <path id="Path_70" data-name="Path 70" d="M0,0A.843.843,0,0,1,1.686,0,.844.844,0,0,1,.843.843.844.844,0,0,1,0,0Z" fill="none" stroke="#fff" stroke-linecap="round" stroke-linejoin="round" stroke-width="2"/>
      </g>
      <g id="Group_154" data-name="Group 154" transform="translate(15.173 -42.99)">
        <path id="Path_71" data-name="Path 71" d="M0,0A4.215,4.215,0,0,1,4.215,4.215v.843H5.9A1.685,1.685,0,0,1,7.586,6.744V8.429A1.685,1.685,0,0,1,5.9,10.115H-5.9A1.685,1.685,0,0,1-7.586,8.429V6.744A1.685,1.685,0,0,1-5.9,5.058h1.686V4.215A4.215,4.215,0,0,1,0,0M-7.586,6.744H-11.8A2.528,2.528,0,0,0-14.33,9.272v29.5m0-.367v1.21A2.529,2.529,0,0,0-11.8,42.147H11.8a2.529,2.529,0,0,0,2.529-2.529V9.272A2.528,2.528,0,0,0,11.8,6.744H7.586" fill="none" stroke="#fff" stroke-linejoin="round" stroke-width="2"/>
      </g>
    </g>
    <g id="Group_156" data-name="Group 156" transform="translate(24.445 -26.131)">
      <path id="Path_73" data-name="Path 73" d="M0,0H-11.8M0,5.058H-11.8m5.057,15.173H0M0,10.115H-11.924m-2.051,5.058H0" fill="none" stroke="#fff" stroke-linecap="round" stroke-linejoin="round" stroke-width="2"/>
    </g>
  </g>
</svg>
