<svg xmlns="http://www.w3.org/2000/svg" xmlns:xlink="http://www.w3.org/1999/xlink" width="20" height="20" viewBox="0 0 20 20">
  <defs>
    <clipPath id="clip-path">
      <path id="Path_3" data-name="Path 3" d="M0,7.5H20v-20H0Z" transform="translate(0 12.5)" fill="none"/>
    </clipPath>
  </defs>
  <g id="Group_4" data-name="Group 4" transform="translate(0 12.5)">
    <g id="Group_3" data-name="Group 3" transform="translate(0 -12.5)" clip-path="url(#clip-path)">
      <g id="Group_1" data-name="Group 1" transform="translate(0.4 0.4)">
        <path id="Path_1" data-name="Path 1" d="M7.2,4V1.879A.476.476,0,0,0,6.723,1.4H5.5a.481.481,0,0,1-.462-.37A7.653,7.653,0,0,0,4.206-.974a.48.48,0,0,1,.066-.587L5.05-2.34A.517.517,0,0,0,5.138-3.1l-1.5-1.5a.477.477,0,0,0-.674,0L2.1-3.736a.48.48,0,0,1-.589.066A7.649,7.649,0,0,0-.494-4.5a.476.476,0,0,1-.37-.461v-1.1c0-.387-.213-.6-.477-.6H-3.459a.476.476,0,0,0-.477.477v1.219a.48.48,0,0,1-.37.462,7.649,7.649,0,0,0-2.006.834A.478.478,0,0,1-6.9-3.734l-.778-.778A.518.518,0,0,0-8.44-4.6l-1.5,1.5a.479.479,0,0,0,0,.675l.864.864a.483.483,0,0,1,.067.589,7.6,7.6,0,0,0-.835,2.006.478.478,0,0,1-.461.37h-1.1c-.387,0-.6.213-.6.477V4c0,.262.213.477.6.477h1.1a.476.476,0,0,1,.461.37A7.622,7.622,0,0,0-9.006,6.85a.483.483,0,0,1-.067.589l-.864.864a.477.477,0,0,0,0,.674l1.5,1.5a.519.519,0,0,0,.763-.088L-6.9,9.61a.478.478,0,0,1,.587-.066,7.653,7.653,0,0,0,2.006.835.478.478,0,0,1,.37.462v1.219a.477.477,0,0,0,.477.477h2.118c.264,0,.477-.213.477-.6v-1.1a.476.476,0,0,1,.37-.459,7.653,7.653,0,0,0,2.006-.835.481.481,0,0,1,.589.067l.864.864a.477.477,0,0,0,.674,0l1.5-1.5a.517.517,0,0,0-.088-.762l-.778-.778a.48.48,0,0,1-.066-.587,7.676,7.676,0,0,0,.835-2.006.48.48,0,0,1,.462-.37H6.723A.477.477,0,0,0,7.2,4M.126,2.938A2.527,2.527,0,0,1-2.4,5.464,2.527,2.527,0,0,1-4.926,2.938,2.527,2.527,0,0,1-2.4.412,2.527,2.527,0,0,1,.126,2.938" transform="translate(12 6.662)" fill="#fff"/>
      </g>
      <g id="Group_2" data-name="Group 2" transform="translate(0.4 0.4)">
        <path id="Path_2" data-name="Path 2" d="M7.2,4V1.879A.476.476,0,0,0,6.723,1.4H5.5a.481.481,0,0,1-.462-.37A7.653,7.653,0,0,0,4.206-.974a.48.48,0,0,1,.066-.587L5.05-2.34A.517.517,0,0,0,5.138-3.1l-1.5-1.5a.477.477,0,0,0-.674,0L2.1-3.736a.48.48,0,0,1-.589.066A7.649,7.649,0,0,0-.494-4.5a.476.476,0,0,1-.37-.461v-1.1c0-.387-.213-.6-.477-.6H-3.459a.476.476,0,0,0-.477.477v1.219a.48.48,0,0,1-.37.462,7.649,7.649,0,0,0-2.006.834A.478.478,0,0,1-6.9-3.734l-.778-.778A.518.518,0,0,0-8.44-4.6l-1.5,1.5a.479.479,0,0,0,0,.675l.864.864a.483.483,0,0,1,.067.589,7.6,7.6,0,0,0-.835,2.006.478.478,0,0,1-.461.37h-1.1c-.387,0-.6.213-.6.477V4c0,.262.213.477.6.477h1.1a.476.476,0,0,1,.461.37A7.622,7.622,0,0,0-9.006,6.85a.483.483,0,0,1-.067.589l-.864.864a.477.477,0,0,0,0,.674l1.5,1.5a.519.519,0,0,0,.763-.088L-6.9,9.61a.478.478,0,0,1,.587-.066,7.653,7.653,0,0,0,2.006.835.478.478,0,0,1,.37.462v1.219a.477.477,0,0,0,.477.477h2.118c.264,0,.477-.213.477-.6v-1.1a.476.476,0,0,1,.37-.459,7.653,7.653,0,0,0,2.006-.835.481.481,0,0,1,.589.067l.864.864a.477.477,0,0,0,.674,0l1.5-1.5a.517.517,0,0,0-.088-.762l-.778-.778a.48.48,0,0,1-.066-.587,7.676,7.676,0,0,0,.835-2.006.48.48,0,0,1,.462-.37H6.723A.477.477,0,0,0,7.2,4ZM.126,2.938A2.527,2.527,0,0,1-2.4,5.464,2.527,2.527,0,0,1-4.926,2.938,2.527,2.527,0,0,1-2.4.412,2.527,2.527,0,0,1,.126,2.938Z" transform="translate(12 6.662)" fill="none" stroke="#fff" stroke-linecap="round" stroke-linejoin="round" stroke-width="0.5"/>
      </g>
    </g>
  </g>
</svg>
