<svg xmlns="http://www.w3.org/2000/svg" xmlns:xlink="http://www.w3.org/1999/xlink" width="40.935" height="40.935" viewBox="0 0 40.935 40.935">
  <defs>
    <clipPath id="clip-path">
      <path id="Path_52" data-name="Path 52" d="M0,0H40.935V-40.935H0Z" fill="none"/>
    </clipPath>
  </defs>
  <g id="Group_174" data-name="Group 174" transform="translate(0 40.935)" style="isolation: isolate">
    <g id="Group_132" data-name="Group 132" clip-path="url(#clip-path)">
      <g id="Group_130" data-name="Group 130" transform="translate(40.085 -22.647)">
        <path id="Path_50" data-name="Path 50" d="M0,0A17.438,17.438,0,0,0-17.438-17.438V0Z" fill="none" stroke="#fff" stroke-linecap="round" stroke-linejoin="round" stroke-width="2"/>
      </g>
      <g id="Group_131" data-name="Group 131" transform="translate(35.725 -18.288)">
        <path id="Path_51" data-name="Path 51" d="M0,0A17.438,17.438,0,0,1-17.438,17.438,17.437,17.437,0,0,1-34.875,0,17.437,17.437,0,0,1-17.438-17.438V0Z" fill="none" stroke="#fff" stroke-linecap="round" stroke-linejoin="round" stroke-width="2"/>
      </g>
    </g>
    <g id="Group_133" data-name="Group 133" transform="translate(18.288 -18.288)">
      <path id="Path_53" data-name="Path 53" d="M0,0-12.33,12.33" fill="none" stroke="#fff" stroke-linecap="round" stroke-linejoin="round" stroke-width="2"/>
    </g>
    <g id="Group_134" data-name="Group 134" transform="translate(34.977 -34.977)">
      <path id="Path_54" data-name="Path 54" d="M0,0-12.33,12.33" fill="none" stroke="#fff" stroke-linecap="round" stroke-linejoin="round" stroke-width="2"/>
    </g>
    <g id="Group_138" data-name="Group 138" clip-path="url(#clip-path)">
      <g id="Group_135" data-name="Group 135" transform="translate(14.177 -14.177)">
        <path id="Path_55" data-name="Path 55" d="M0,0A5.794,5.794,0,0,0,4.11,1.7,5.813,5.813,0,0,0,9.923-4.11H4.11Z" fill="none" stroke="#fff" stroke-linecap="round" stroke-linejoin="round" stroke-width="2"/>
      </g>
      <g id="Group_136" data-name="Group 136" transform="translate(10.068 -10.068)">
        <path id="Path_56" data-name="Path 56" d="M0,0A11.588,11.588,0,0,0,8.22,3.4,11.625,11.625,0,0,0,19.845-8.22H8.22Z" fill="none" stroke="#fff" stroke-linecap="round" stroke-linejoin="round" stroke-width="2"/>
      </g>
      <g id="Group_137" data-name="Group 137" transform="translate(38.309 -30.317)">
        <path id="Path_57" data-name="Path 57" d="M0,0A17.5,17.5,0,0,0-7.992-7.992l-7.67,7.669V7.67H-7.67Z" fill="none" stroke="#fff" stroke-linecap="round" stroke-linejoin="round" stroke-width="2"/>
      </g>
    </g>
  </g>
</svg>
