<svg xmlns="http://www.w3.org/2000/svg" width="26.795" height="35.75" viewBox="0 0 26.795 35.75">
  <g id="hand-right-outline" transform="translate(-4.58 -0.125)">
    <path id="Path_378" data-name="Path 378" d="M30.375,22.5V10.125a2.25,2.25,0,0,0-2.25-2.25h0a2.25,2.25,0,0,0-2.25,2.25V18" fill="none" stroke="#fff" stroke-linecap="round" stroke-linejoin="round" stroke-width="2"/>
    <path id="Path_379" data-name="Path 379" d="M25.875,18V5.625a2.25,2.25,0,0,0-2.25-2.25h0a2.25,2.25,0,0,0-2.25,2.25v11.25" fill="none" stroke="#fff" stroke-linecap="round" stroke-linejoin="round" stroke-width="2"/>
    <path id="Path_380" data-name="Path 380" d="M16.875,16.945V6.75a2.25,2.25,0,0,0-2.25-2.25h0a2.25,2.25,0,0,0-2.25,2.25V22.5" fill="none" stroke="#fff" stroke-linecap="round" stroke-linejoin="round" stroke-width="2"/>
    <path id="Path_381" data-name="Path 381" d="M21.375,16.875V3.375a2.25,2.25,0,0,0-2.25-2.25h0a2.25,2.25,0,0,0-2.25,2.25v13.5" fill="none" stroke="#fff" stroke-linecap="round" stroke-linejoin="round" stroke-width="2"/>
    <path id="Path_382" data-name="Path 382" d="M30.375,22.5c0,8.255-4.5,12.375-10.688,12.375s-8.7-2.784-10.125-6.188l-3.7-10.124A2.32,2.32,0,0,1,6.694,15.5h0a2.25,2.25,0,0,1,3.116.821L12.375,22.5" fill="none" stroke="#fff" stroke-linecap="round" stroke-linejoin="round" stroke-width="2"/>
  </g>
</svg>
