<svg xmlns="http://www.w3.org/2000/svg" xmlns:xlink="http://www.w3.org/1999/xlink" width="44.888" height="41.682" viewBox="0 0 44.888 41.682">
  <defs>
    <clipPath id="clip-path">
      <path id="Path_62" data-name="Path 62" d="M0,0H44.888V-41.682H0Z" fill="none"/>
    </clipPath>
  </defs>
  <g id="Group_152" data-name="Group 152" transform="translate(0 41.682)" style="isolation: isolate">
    <g id="Group_144" data-name="Group 144" clip-path="url(#clip-path)">
      <g id="Group_143" data-name="Group 143" transform="translate(16.833 -21.643)">
        <path id="Path_61" data-name="Path 61" d="M0,0A7.214,7.214,0,0,1,7.214-7.214,7.214,7.214,0,0,1,14.428,0,7.214,7.214,0,0,1,7.214,7.214,7.214,7.214,0,0,1,0,0ZM3.206,0A4.009,4.009,0,0,1,7.214-4.008,4.008,4.008,0,0,1,11.222,0,4.008,4.008,0,0,1,7.214,4.008,4.009,4.009,0,0,1,3.206,0ZM-6.413,13.627A3.207,3.207,0,0,1-3.206,10.42,3.207,3.207,0,0,1,0,13.627a3.206,3.206,0,0,1-3.206,3.206A3.206,3.206,0,0,1-6.413,13.627ZM14.428-16.032a3.207,3.207,0,0,1,3.207-3.206,3.207,3.207,0,0,1,3.206,3.206,3.207,3.207,0,0,1-3.206,3.207A3.207,3.207,0,0,1,14.428-16.032ZM-16.032,0a3.206,3.206,0,0,1,3.207-3.206A3.206,3.206,0,0,1-9.619,0a3.206,3.206,0,0,1-3.206,3.206A3.206,3.206,0,0,1-16.032,0Zm8.016-12.024A3.207,3.207,0,0,1-4.809-15.23,3.207,3.207,0,0,1-1.6-12.024,3.207,3.207,0,0,1-4.809-8.817,3.207,3.207,0,0,1-8.016-12.024ZM16.032,16.833a4.008,4.008,0,1,1,4.007,4.008A4.008,4.008,0,0,1,16.032,16.833ZM2.619,5.561l-3.953,5.473" fill="none" stroke="#fff" stroke-linecap="round" stroke-linejoin="round" stroke-width="2"/>
      </g>
    </g>
    <g id="Group_145" data-name="Group 145" transform="translate(7.518 -21.643)">
      <path id="Path_63" data-name="Path 63" d="M0,0H7.113" fill="none" stroke="#fff" stroke-linecap="round" stroke-linejoin="round" stroke-dashoffset="0.405" stroke-width="2" stroke-dasharray="0.202 0.202 0.202 4.202"/>
    </g>
    <g id="Group_146" data-name="Group 146" transform="translate(7.214 -21.643)">
      <path id="Path_64" data-name="Path 64" d="M0,0H.1M9.518,0h.1" fill="none" stroke="#fff" stroke-linecap="round" stroke-linejoin="round" stroke-width="2"/>
    </g>
    <g id="Group_147" data-name="Group 147" transform="translate(14.141 -31.275)">
      <path id="Path_65" data-name="Path 65" d="M0,0,4.4,4.973" fill="none" stroke="#fff" stroke-linecap="round" stroke-linejoin="round" stroke-width="2"/>
    </g>
    <g id="Group_148" data-name="Group 148" transform="translate(28.638 -15.617)">
      <path id="Path_66" data-name="Path 66" d="M0,0,4.454,5.846" fill="none" stroke="#fff" stroke-linecap="round" stroke-linejoin="round" stroke-dashoffset="0.491" stroke-width="2" stroke-dasharray="0.245 0.245 0.245 4.245"/>
    </g>
    <g id="Group_149" data-name="Group 149" transform="translate(28.415 -15.91)">
      <path id="Path_67" data-name="Path 67" d="M0,0,.074.1m5.89,7.729.074.1" fill="none" stroke="#fff" stroke-linecap="round" stroke-linejoin="round" stroke-width="2"/>
    </g>
    <g id="Group_151" data-name="Group 151" clip-path="url(#clip-path)">
      <g id="Group_150" data-name="Group 150" transform="translate(32.723 -34.989)">
        <path id="Path_68" data-name="Path 68" d="M0,0-4.746,7.3m9.754.377a8.015,8.015,0,0,1,0,11.336M2.547,11.08a3.609,3.609,0,0,1,0,4.534M7.607,4.278a12.825,12.825,0,0,1,0,18.138" fill="none" stroke="#fff" stroke-linecap="round" stroke-linejoin="round" stroke-width="2"/>
      </g>
    </g>
  </g>
</svg>
