<svg xmlns="http://www.w3.org/2000/svg" xmlns:xlink="http://www.w3.org/1999/xlink" width="27.715" height="36.332" viewBox="0 0 27.715 36.332">
  <defs>
    <clipPath id="clip-path">
      <path id="Path_32" data-name="Path 32" d="M0,0H27.715V-36.332H0Z" transform="translate(0 36.332)" fill="none" stroke="#707070" stroke-linecap="round" stroke-width="1"/>
    </clipPath>
  </defs>
  <g id="Group_49" data-name="Group 49" style="isolation: isolate">
    <g id="Group_48" data-name="Group 48" clip-path="url(#clip-path)">
      <g id="Group_45" data-name="Group 45" transform="translate(13.27 24.363)">
        <path id="Path_29" data-name="Path 29" d="M0,0A.588.588,0,0,1-.588.588.588.588,0,0,1-1.176,0,.588.588,0,0,1-.588-.588.588.588,0,0,1,0,0" transform="translate(1.176 0.588)" fill="none" stroke="#707070" stroke-linecap="round" stroke-width="1"/>
      </g>
      <g id="Group_46" data-name="Group 46" transform="translate(13.27 24.363)">
        <path id="Path_30" data-name="Path 30" d="M0,0A.588.588,0,0,1-.588.588.588.588,0,0,1-1.176,0,.588.588,0,0,1-.588-.588.588.588,0,0,1,0,0Z" transform="translate(1.176 0.588)" fill="none" stroke="#fff" stroke-linecap="round" stroke-linejoin="round" stroke-width="2"/>
      </g>
      <g id="Group_47" data-name="Group 47" transform="translate(0.885 0.885)">
        <path id="Path_31" data-name="Path 31" d="M0,0V-3.37m12.972,5.9A3.6,3.6,0,0,1,9.434,6.2H-9.434a3.6,3.6,0,0,1-3.538-3.669V-9.7a3.6,3.6,0,0,1,3.538-3.669H9.434A3.6,3.6,0,0,1,12.972-9.7ZM-8.443-13.419v-6.225A8.582,8.582,0,0,1,0-28.359a8.582,8.582,0,0,1,8.443,8.715v6.225" transform="translate(12.972 28.359)" fill="none" stroke="#fff" stroke-linecap="round" stroke-linejoin="round" stroke-width="2"/>
      </g>
    </g>
  </g>
</svg>
