<svg width="424" height="44" xmlns="http://www.w3.org/2000/svg"><path d="M22.264-2.2h8.272v23.408q0 6.688-3.608 10.12-3.608 3.432-10.56 3.432t-10.56-3.432Q2.2 27.896 2.2 21.208V-2.2h8.272v20.988q0 4.4 1.386 6.116 1.386 1.716 4.51 1.716 3.124 0 4.51-1.716 1.386-1.716 1.386-6.116V-2.2zm19.9 36.3h-7.788V-3.74h7.788V34.1zm2.344-22.572h3.256V3.124h7.788v8.404h4.752v5.94h-4.752v7.172q0 3.124 1.76 3.124.44 0 .924-.176.484-.176.748-.352l.264-.176 1.936 6.292q-2.508 1.408-5.72 1.408-2.2 0-3.784-.77-1.584-.77-2.398-2.068-.814-1.298-1.166-2.728-.352-1.43-.352-3.058v-8.668h-3.256v-5.94zM63.572-1.056q1.364-1.364 3.256-1.364 1.892 0 3.256 1.364Q71.448.308 71.448 2.2q0 1.892-1.364 3.256Q68.72 6.82 66.828 6.82q-1.892 0-3.256-1.364-1.364-1.364-1.364-3.256 0-1.892 1.364-3.256zm7.04 12.584h-7.788V34.1h7.788V11.528zM82.9 34.1h-7.788V11.528H82.9v2.376h.088q3.036-3.036 6.468-3.036 2.464 0 4.62 1.012t3.256 3.124q3.432-4.136 7.48-4.136 3.608 0 6.204 2.024 2.596 2.024 2.596 6.336V34.1h-7.788V21.34q0-1.804-.99-3.014-.99-1.21-2.97-1.21-1.716 0-2.618 1.034-.902 1.034-.99 2.486V34.1h-7.788V21.34q0-1.804-.99-3.014-.99-1.21-2.97-1.21-1.804 0-2.706 1.122Q82.9 19.36 82.9 20.9v13.2zm36.092-2.794q-3.168-3.454-3.168-8.47t3.168-8.492q3.168-3.476 8.052-3.476 4.488 0 7.392 2.816v-2.156h7.788V34.1h-7.7v-2.552h-.088q-2.904 3.212-7.392 3.212-4.884 0-8.052-3.454zm6.622-12.298q-1.518 1.496-1.518 3.828t1.452 3.806q1.452 1.474 3.828 1.474 2.288 0 3.762-1.496 1.474-1.496 1.474-3.784 0-2.332-1.518-3.828t-3.718-1.496q-2.244 0-3.762 1.496zm18.954-7.48h3.256V3.124h7.788v8.404h4.752v5.94h-4.752v7.172q0 3.124 1.76 3.124.44 0 .924-.176.484-.176.748-.352l.264-.176 1.936 6.292q-2.508 1.408-5.72 1.408-2.2 0-3.784-.77-1.584-.77-2.398-2.068-.814-1.298-1.166-2.728-.352-1.43-.352-3.058v-8.668h-3.256v-5.94zm41.152 12.364h-16.368q0 2.376 1.54 3.52 1.54 1.144 3.344 1.144 1.892 0 2.992-.506t2.508-2.002l5.632 2.816q-3.52 5.896-11.704 5.896-5.104 0-8.756-3.498t-3.652-8.426q0-4.928 3.652-8.448 3.652-3.52 8.756-3.52 5.368 0 8.734 3.102 3.366 3.102 3.366 8.866 0 .792-.044 1.056zm-16.148-4.312h8.58q-.264-1.76-1.386-2.706-1.122-.946-2.882-.946-1.936 0-3.08 1.012-1.144 1.012-1.232 2.64zm49.172 7.04q1.892 0 3.674-.572t2.618-1.1l.836-.572 3.52 7.04q-.176.132-.484.352-.308.22-1.43.814-1.122.594-2.398 1.034-1.276.44-3.344.792-2.068.352-4.268.352-5.06 0-9.592-2.486-4.532-2.486-7.304-6.842-2.772-4.356-2.772-9.416 0-3.828 1.628-7.348t4.334-6.028q2.706-2.508 6.314-4.004 3.608-1.496 7.392-1.496 3.52 0 6.49.836t4.202 1.672l1.232.836-3.52 7.04q-.308-.264-.924-.638-.616-.374-2.464-.99-1.848-.616-3.74-.616-2.992 0-5.368.968-2.376.968-3.762 2.552-1.386 1.584-2.112 3.41-.726 1.826-.726 3.718 0 4.136 3.102 7.414 3.102 3.278 8.866 3.278zm14.95 4.796q-3.762-3.344-3.762-8.58 0-5.236 3.916-8.602 3.916-3.366 9.68-3.366 5.676 0 9.57 3.388t3.894 8.58q0 5.192-3.806 8.558-3.806 3.366-9.658 3.366-6.072 0-9.834-3.344zm6.028-12.408q-1.518 1.496-1.518 3.828t1.452 3.806q1.452 1.474 3.828 1.474 2.288 0 3.762-1.496 1.474-1.496 1.474-3.784 0-2.332-1.518-3.828t-3.718-1.496q-2.244 0-3.762 1.496zm27.71 15.092h-7.788V11.528h7.788v2.376h.088q3.036-3.036 6.468-3.036 1.672 0 3.322.44 1.65.44 3.168 1.364 1.518.924 2.464 2.618t.946 3.938V34.1H276.1V21.34q0-1.76-1.122-3.08t-2.926-1.32q-1.76 0-3.19 1.364t-1.43 3.036V34.1zm18.36-22.572h3.256V3.124h7.788v8.404h4.752v5.94h-4.752v7.172q0 3.124 1.76 3.124.44 0 .924-.176.484-.176.748-.352l.264-.176 1.936 6.292q-2.508 1.408-5.72 1.408-2.2 0-3.784-.77-1.584-.77-2.398-2.068-.814-1.298-1.166-2.728-.352-1.43-.352-3.058v-8.668h-3.256v-5.94zM311.896 34.1h-7.788V11.528h7.788v3.256h.088q.088-.176.286-.44.198-.264.858-.924.66-.66 1.408-1.188.748-.528 1.936-.946 1.188-.418 2.42-.418 1.276 0 2.508.352t1.804.704l.616.352-3.256 6.6q-1.452-1.232-4.048-1.232-1.408 0-2.42.616t-1.43 1.496q-.418.88-.594 1.496t-.176.968V34.1zm15.258-2.684q-3.762-3.344-3.762-8.58 0-5.236 3.916-8.602 3.916-3.366 9.68-3.366 5.676 0 9.57 3.388t3.894 8.58q0 5.192-3.806 8.558-3.806 3.366-9.658 3.366-6.072 0-9.834-3.344zm6.028-12.408q-1.518 1.496-1.518 3.828t1.452 3.806q1.452 1.474 3.828 1.474 2.288 0 3.762-1.496 1.474-1.496 1.474-3.784 0-2.332-1.518-3.828t-3.718-1.496q-2.244 0-3.762 1.496zm27.71 15.092h-7.788V-3.74h7.788V34.1z" fill="#fff"/></svg>